<mxfile host="Electron" modified="2024-01-15T13:15:13.809Z" agent="Mozilla/5.0 (Windows NT 10.0; Win64; x64) AppleWebKit/537.36 (KHTML, like Gecko) draw.io/22.1.11 Chrome/114.0.5735.289 Electron/25.9.8 Safari/537.36" etag="SLmo8TtpsvRF67Ik91xG" version="22.1.11" type="device">
  <diagram name="第 1 页" id="UMpMYDXQxKo3RUgV_L01">
    <mxGraphModel dx="1434" dy="844" grid="1" gridSize="10" guides="1" tooltips="1" connect="1" arrows="1" fold="1" page="1" pageScale="1" pageWidth="827" pageHeight="1169" math="0" shadow="0">
      <root>
        <mxCell id="0" />
        <mxCell id="1" parent="0" />
        <mxCell id="iI5aW3ok1Ws6ErhM6dqE-75" value="" style="group" vertex="1" connectable="0" parent="1">
          <mxGeometry x="160" y="259" width="520" height="421" as="geometry" />
        </mxCell>
        <mxCell id="iI5aW3ok1Ws6ErhM6dqE-1" value="" style="rounded=0;whiteSpace=wrap;html=1;container=1;" vertex="1" parent="iI5aW3ok1Ws6ErhM6dqE-75">
          <mxGeometry y="61" width="520" height="360" as="geometry" />
        </mxCell>
        <mxCell id="iI5aW3ok1Ws6ErhM6dqE-48" value="GameEventSystem" style="swimlane;fontStyle=1;align=center;verticalAlign=top;childLayout=stackLayout;horizontal=1;startSize=26;horizontalStack=0;resizeParent=1;resizeParentMax=0;resizeLast=0;collapsible=1;marginBottom=0;whiteSpace=wrap;html=1;" vertex="1" parent="iI5aW3ok1Ws6ErhM6dqE-1">
          <mxGeometry x="20" y="90" width="160" height="34" as="geometry" />
        </mxCell>
        <mxCell id="iI5aW3ok1Ws6ErhM6dqE-50" value="" style="line;strokeWidth=1;fillColor=none;align=left;verticalAlign=middle;spacingTop=-1;spacingLeft=3;spacingRight=3;rotatable=0;labelPosition=right;points=[];portConstraint=eastwest;strokeColor=inherit;" vertex="1" parent="iI5aW3ok1Ws6ErhM6dqE-48">
          <mxGeometry y="26" width="160" height="8" as="geometry" />
        </mxCell>
        <mxCell id="iI5aW3ok1Ws6ErhM6dqE-52" value="CharacterSystem" style="swimlane;fontStyle=1;align=center;verticalAlign=top;childLayout=stackLayout;horizontal=1;startSize=26;horizontalStack=0;resizeParent=1;resizeParentMax=0;resizeLast=0;collapsible=1;marginBottom=0;whiteSpace=wrap;html=1;" vertex="1" parent="iI5aW3ok1Ws6ErhM6dqE-1">
          <mxGeometry x="20" y="163" width="160" height="34" as="geometry" />
        </mxCell>
        <mxCell id="iI5aW3ok1Ws6ErhM6dqE-53" value="" style="line;strokeWidth=1;fillColor=none;align=left;verticalAlign=middle;spacingTop=-1;spacingLeft=3;spacingRight=3;rotatable=0;labelPosition=right;points=[];portConstraint=eastwest;strokeColor=inherit;" vertex="1" parent="iI5aW3ok1Ws6ErhM6dqE-52">
          <mxGeometry y="26" width="160" height="8" as="geometry" />
        </mxCell>
        <mxCell id="iI5aW3ok1Ws6ErhM6dqE-59" value="CampSystem" style="swimlane;fontStyle=1;align=center;verticalAlign=top;childLayout=stackLayout;horizontal=1;startSize=26;horizontalStack=0;resizeParent=1;resizeParentMax=0;resizeLast=0;collapsible=1;marginBottom=0;whiteSpace=wrap;html=1;" vertex="1" parent="iI5aW3ok1Ws6ErhM6dqE-1">
          <mxGeometry x="230" y="110" width="120" height="34" as="geometry" />
        </mxCell>
        <mxCell id="iI5aW3ok1Ws6ErhM6dqE-60" value="" style="line;strokeWidth=1;fillColor=none;align=left;verticalAlign=middle;spacingTop=-1;spacingLeft=3;spacingRight=3;rotatable=0;labelPosition=right;points=[];portConstraint=eastwest;strokeColor=inherit;" vertex="1" parent="iI5aW3ok1Ws6ErhM6dqE-59">
          <mxGeometry y="26" width="120" height="8" as="geometry" />
        </mxCell>
        <mxCell id="iI5aW3ok1Ws6ErhM6dqE-61" value="StageSystem" style="swimlane;fontStyle=1;align=center;verticalAlign=top;childLayout=stackLayout;horizontal=1;startSize=26;horizontalStack=0;resizeParent=1;resizeParentMax=0;resizeLast=0;collapsible=1;marginBottom=0;whiteSpace=wrap;html=1;" vertex="1" parent="iI5aW3ok1Ws6ErhM6dqE-1">
          <mxGeometry x="390" y="110" width="120" height="34" as="geometry" />
        </mxCell>
        <mxCell id="iI5aW3ok1Ws6ErhM6dqE-62" value="" style="line;strokeWidth=1;fillColor=none;align=left;verticalAlign=middle;spacingTop=-1;spacingLeft=3;spacingRight=3;rotatable=0;labelPosition=right;points=[];portConstraint=eastwest;strokeColor=inherit;" vertex="1" parent="iI5aW3ok1Ws6ErhM6dqE-61">
          <mxGeometry y="26" width="120" height="8" as="geometry" />
        </mxCell>
        <mxCell id="iI5aW3ok1Ws6ErhM6dqE-63" value="APSystem" style="swimlane;fontStyle=1;align=center;verticalAlign=top;childLayout=stackLayout;horizontal=1;startSize=26;horizontalStack=0;resizeParent=1;resizeParentMax=0;resizeLast=0;collapsible=1;marginBottom=0;whiteSpace=wrap;html=1;" vertex="1" parent="iI5aW3ok1Ws6ErhM6dqE-1">
          <mxGeometry x="230" y="163" width="120" height="34" as="geometry" />
        </mxCell>
        <mxCell id="iI5aW3ok1Ws6ErhM6dqE-64" value="" style="line;strokeWidth=1;fillColor=none;align=left;verticalAlign=middle;spacingTop=-1;spacingLeft=3;spacingRight=3;rotatable=0;labelPosition=right;points=[];portConstraint=eastwest;strokeColor=inherit;" vertex="1" parent="iI5aW3ok1Ws6ErhM6dqE-63">
          <mxGeometry y="26" width="120" height="8" as="geometry" />
        </mxCell>
        <mxCell id="iI5aW3ok1Ws6ErhM6dqE-65" value="AchievementSystem" style="swimlane;fontStyle=1;align=center;verticalAlign=top;childLayout=stackLayout;horizontal=1;startSize=26;horizontalStack=0;resizeParent=1;resizeParentMax=0;resizeLast=0;collapsible=1;marginBottom=0;whiteSpace=wrap;html=1;" vertex="1" parent="iI5aW3ok1Ws6ErhM6dqE-1">
          <mxGeometry x="350" y="220" width="160" height="34" as="geometry" />
        </mxCell>
        <mxCell id="iI5aW3ok1Ws6ErhM6dqE-66" value="" style="line;strokeWidth=1;fillColor=none;align=left;verticalAlign=middle;spacingTop=-1;spacingLeft=3;spacingRight=3;rotatable=0;labelPosition=right;points=[];portConstraint=eastwest;strokeColor=inherit;" vertex="1" parent="iI5aW3ok1Ws6ErhM6dqE-65">
          <mxGeometry y="26" width="160" height="8" as="geometry" />
        </mxCell>
        <mxCell id="iI5aW3ok1Ws6ErhM6dqE-67" value="CampInfoUI" style="swimlane;fontStyle=1;align=center;verticalAlign=top;childLayout=stackLayout;horizontal=1;startSize=26;horizontalStack=0;resizeParent=1;resizeParentMax=0;resizeLast=0;collapsible=1;marginBottom=0;whiteSpace=wrap;html=1;" vertex="1" parent="iI5aW3ok1Ws6ErhM6dqE-1">
          <mxGeometry x="40" y="231" width="120" height="34" as="geometry" />
        </mxCell>
        <mxCell id="iI5aW3ok1Ws6ErhM6dqE-68" value="" style="line;strokeWidth=1;fillColor=none;align=left;verticalAlign=middle;spacingTop=-1;spacingLeft=3;spacingRight=3;rotatable=0;labelPosition=right;points=[];portConstraint=eastwest;strokeColor=inherit;" vertex="1" parent="iI5aW3ok1Ws6ErhM6dqE-67">
          <mxGeometry y="26" width="120" height="8" as="geometry" />
        </mxCell>
        <mxCell id="iI5aW3ok1Ws6ErhM6dqE-69" value="GamePauseUI" style="swimlane;fontStyle=1;align=center;verticalAlign=top;childLayout=stackLayout;horizontal=1;startSize=26;horizontalStack=0;resizeParent=1;resizeParentMax=0;resizeLast=0;collapsible=1;marginBottom=0;whiteSpace=wrap;html=1;" vertex="1" parent="iI5aW3ok1Ws6ErhM6dqE-1">
          <mxGeometry x="40" y="300" width="120" height="34" as="geometry" />
        </mxCell>
        <mxCell id="iI5aW3ok1Ws6ErhM6dqE-70" value="" style="line;strokeWidth=1;fillColor=none;align=left;verticalAlign=middle;spacingTop=-1;spacingLeft=3;spacingRight=3;rotatable=0;labelPosition=right;points=[];portConstraint=eastwest;strokeColor=inherit;" vertex="1" parent="iI5aW3ok1Ws6ErhM6dqE-69">
          <mxGeometry y="26" width="120" height="8" as="geometry" />
        </mxCell>
        <mxCell id="iI5aW3ok1Ws6ErhM6dqE-71" value="SoldierInfoUI" style="swimlane;fontStyle=1;align=center;verticalAlign=top;childLayout=stackLayout;horizontal=1;startSize=26;horizontalStack=0;resizeParent=1;resizeParentMax=0;resizeLast=0;collapsible=1;marginBottom=0;whiteSpace=wrap;html=1;" vertex="1" parent="iI5aW3ok1Ws6ErhM6dqE-1">
          <mxGeometry x="200" y="231" width="120" height="34" as="geometry" />
        </mxCell>
        <mxCell id="iI5aW3ok1Ws6ErhM6dqE-72" value="" style="line;strokeWidth=1;fillColor=none;align=left;verticalAlign=middle;spacingTop=-1;spacingLeft=3;spacingRight=3;rotatable=0;labelPosition=right;points=[];portConstraint=eastwest;strokeColor=inherit;" vertex="1" parent="iI5aW3ok1Ws6ErhM6dqE-71">
          <mxGeometry y="26" width="120" height="8" as="geometry" />
        </mxCell>
        <mxCell id="iI5aW3ok1Ws6ErhM6dqE-73" value="GameStateInfo" style="swimlane;fontStyle=1;align=center;verticalAlign=top;childLayout=stackLayout;horizontal=1;startSize=26;horizontalStack=0;resizeParent=1;resizeParentMax=0;resizeLast=0;collapsible=1;marginBottom=0;whiteSpace=wrap;html=1;" vertex="1" parent="iI5aW3ok1Ws6ErhM6dqE-1">
          <mxGeometry x="310" y="300" width="120" height="34" as="geometry" />
        </mxCell>
        <mxCell id="iI5aW3ok1Ws6ErhM6dqE-74" value="" style="line;strokeWidth=1;fillColor=none;align=left;verticalAlign=middle;spacingTop=-1;spacingLeft=3;spacingRight=3;rotatable=0;labelPosition=right;points=[];portConstraint=eastwest;strokeColor=inherit;" vertex="1" parent="iI5aW3ok1Ws6ErhM6dqE-73">
          <mxGeometry y="26" width="120" height="8" as="geometry" />
        </mxCell>
        <mxCell id="iI5aW3ok1Ws6ErhM6dqE-41" value="PBaseDefenseGame" style="swimlane;fontStyle=1;align=center;verticalAlign=top;childLayout=stackLayout;horizontal=1;startSize=26;horizontalStack=0;resizeParent=1;resizeParentMax=0;resizeLast=0;collapsible=1;marginBottom=0;whiteSpace=wrap;html=1;" vertex="1" parent="iI5aW3ok1Ws6ErhM6dqE-75">
          <mxGeometry x="180" width="160" height="112" as="geometry" />
        </mxCell>
        <mxCell id="iI5aW3ok1Ws6ErhM6dqE-43" value="" style="line;strokeWidth=1;fillColor=none;align=left;verticalAlign=middle;spacingTop=-1;spacingLeft=3;spacingRight=3;rotatable=0;labelPosition=right;points=[];portConstraint=eastwest;strokeColor=inherit;" vertex="1" parent="iI5aW3ok1Ws6ErhM6dqE-41">
          <mxGeometry y="26" width="160" height="8" as="geometry" />
        </mxCell>
        <mxCell id="iI5aW3ok1Ws6ErhM6dqE-44" value="+Initialize()" style="text;strokeColor=none;fillColor=none;align=left;verticalAlign=top;spacingLeft=4;spacingRight=4;overflow=hidden;rotatable=0;points=[[0,0.5],[1,0.5]];portConstraint=eastwest;whiteSpace=wrap;html=1;" vertex="1" parent="iI5aW3ok1Ws6ErhM6dqE-41">
          <mxGeometry y="34" width="160" height="26" as="geometry" />
        </mxCell>
        <mxCell id="iI5aW3ok1Ws6ErhM6dqE-45" value="+Release()" style="text;strokeColor=none;fillColor=none;align=left;verticalAlign=top;spacingLeft=4;spacingRight=4;overflow=hidden;rotatable=0;points=[[0,0.5],[1,0.5]];portConstraint=eastwest;whiteSpace=wrap;html=1;" vertex="1" parent="iI5aW3ok1Ws6ErhM6dqE-41">
          <mxGeometry y="60" width="160" height="26" as="geometry" />
        </mxCell>
        <mxCell id="iI5aW3ok1Ws6ErhM6dqE-46" value="+Update()" style="text;strokeColor=none;fillColor=none;align=left;verticalAlign=top;spacingLeft=4;spacingRight=4;overflow=hidden;rotatable=0;points=[[0,0.5],[1,0.5]];portConstraint=eastwest;whiteSpace=wrap;html=1;" vertex="1" parent="iI5aW3ok1Ws6ErhM6dqE-41">
          <mxGeometry y="86" width="160" height="26" as="geometry" />
        </mxCell>
        <mxCell id="iI5aW3ok1Ws6ErhM6dqE-82" style="edgeStyle=orthogonalEdgeStyle;rounded=0;orthogonalLoop=1;jettySize=auto;html=1;entryX=0.5;entryY=0;entryDx=0;entryDy=0;endArrow=open;endFill=0;" edge="1" parent="1" source="iI5aW3ok1Ws6ErhM6dqE-76" target="iI5aW3ok1Ws6ErhM6dqE-41">
          <mxGeometry relative="1" as="geometry" />
        </mxCell>
        <mxCell id="iI5aW3ok1Ws6ErhM6dqE-76" value="BattleState" style="swimlane;fontStyle=1;align=center;verticalAlign=top;childLayout=stackLayout;horizontal=1;startSize=26;horizontalStack=0;resizeParent=1;resizeParentMax=0;resizeLast=0;collapsible=1;marginBottom=0;whiteSpace=wrap;html=1;" vertex="1" parent="1">
          <mxGeometry x="40" y="120" width="160" height="112" as="geometry" />
        </mxCell>
        <mxCell id="iI5aW3ok1Ws6ErhM6dqE-78" value="" style="line;strokeWidth=1;fillColor=none;align=left;verticalAlign=middle;spacingTop=-1;spacingLeft=3;spacingRight=3;rotatable=0;labelPosition=right;points=[];portConstraint=eastwest;strokeColor=inherit;" vertex="1" parent="iI5aW3ok1Ws6ErhM6dqE-76">
          <mxGeometry y="26" width="160" height="8" as="geometry" />
        </mxCell>
        <mxCell id="iI5aW3ok1Ws6ErhM6dqE-79" value="+StateBegin()" style="text;strokeColor=none;fillColor=none;align=left;verticalAlign=top;spacingLeft=4;spacingRight=4;overflow=hidden;rotatable=0;points=[[0,0.5],[1,0.5]];portConstraint=eastwest;whiteSpace=wrap;html=1;" vertex="1" parent="iI5aW3ok1Ws6ErhM6dqE-76">
          <mxGeometry y="34" width="160" height="26" as="geometry" />
        </mxCell>
        <mxCell id="iI5aW3ok1Ws6ErhM6dqE-80" value="+StateEnd()" style="text;strokeColor=none;fillColor=none;align=left;verticalAlign=top;spacingLeft=4;spacingRight=4;overflow=hidden;rotatable=0;points=[[0,0.5],[1,0.5]];portConstraint=eastwest;whiteSpace=wrap;html=1;" vertex="1" parent="iI5aW3ok1Ws6ErhM6dqE-76">
          <mxGeometry y="60" width="160" height="26" as="geometry" />
        </mxCell>
        <mxCell id="iI5aW3ok1Ws6ErhM6dqE-81" value="+StateUpdate()" style="text;strokeColor=none;fillColor=none;align=left;verticalAlign=top;spacingLeft=4;spacingRight=4;overflow=hidden;rotatable=0;points=[[0,0.5],[1,0.5]];portConstraint=eastwest;whiteSpace=wrap;html=1;" vertex="1" parent="iI5aW3ok1Ws6ErhM6dqE-76">
          <mxGeometry y="86" width="160" height="26" as="geometry" />
        </mxCell>
      </root>
    </mxGraphModel>
  </diagram>
</mxfile>
